<svg xmlns="http://www.w3.org/2000/svg" viewBox="0 0 100 100">
  <defs>
    <linearGradient id="ap-gold-fav" x1="0%" y1="0%" x2="100%" y2="100%">
      <stop offset="0%" stop-color="#FDF3CE" />
      <stop offset="45%" stop-color="#D4AF37" />
      <stop offset="100%" stop-color="#997715" />
    </linearGradient>
  </defs>
  <rect width="100" height="100" rx="22" fill="#0D0D0D" />
  <circle cx="50" cy="50" r="43" fill="none" stroke="url(#ap-gold-fav)" stroke-width="3.5" />
  <g fill="url(#ap-gold-fav)">
    <path d="M50 50 L50 14 L78 30 Z" transform="rotate(0 50 50)" />
    <path d="M50 50 L50 14 L78 30 Z" transform="rotate(60 50 50)" />
    <path d="M50 50 L50 14 L78 30 Z" transform="rotate(120 50 50)" />
    <path d="M50 50 L50 14 L78 30 Z" transform="rotate(180 50 50)" />
    <path d="M50 50 L50 14 L78 30 Z" transform="rotate(240 50 50)" />
    <path d="M50 50 L50 14 L78 30 Z" transform="rotate(300 50 50)" />
  </g>
  <circle cx="50" cy="50" r="9" fill="#0D0D0D" />
</svg>
